<svg id="noun_feather_2525472" xmlns="http://www.w3.org/2000/svg" viewBox="0 0 92.561 91.44">
  <path id="Path_18" data-name="Path 18" d="M80.664,29.087q-4.6,2.8-11,6L62.273,38.63l-.291.229L61.343,40.8q-1.047,2.742-2.037,4.743l-.059.172L58.026,48a19.445,19.445,0,0,1-5.356,5.715,1.546,1.546,0,0,1,.059-.343v-.058l.059-.228.989-2.915q.815-2.572,1.1-3.715l.059-.114.873-4.458-13.5,7.144q-6.4,3.772-12.456,8.116.235,1.485.35,2v.171l.175,1.086v.458l.057.857L30.207,63.6a6.906,6.906,0,0,1-.582,2.115c-.234.609-.407.914-.525.914a4.311,4.311,0,0,1,0-1.086l.175-3.829L29.1,59.433v-.057l-.232-1.429-.232.114a40.845,40.845,0,0,0-8.5,8,12.066,12.066,0,0,0-2.1,3.772q-.174.514-.523,1.714l-.059,1.6q.061.571.641,3.944l.35-.058a40.971,40.971,0,0,1,4.6-4.686A75.151,75.151,0,0,1,31.719,65.6q2.854-1.885,7.975-4.858,5.875-3.086,11.464-5.772L70.48,46a6.929,6.929,0,0,1,1.514-.571,10.694,10.694,0,0,1-1.339,1.086,73.738,73.738,0,0,1-8.148,5.028l-8.789,4.687Q45.63,60.519,41.9,62.69l-.057.057-1.107.571A95.909,95.909,0,0,0,25.085,74.634l-1.978,1.943a57.4,57.4,0,0,1,8.9.742q.815.116,5.995,1.029a61.336,61.336,0,0,0,6.984.743,22.313,22.313,0,0,0,7.973-1.2,55.749,55.749,0,0,0,8.73-4A83.759,83.759,0,0,0,69.9,68.577l.641-.571.173-.115L72.632,66.4l-4.422-1.086q-3.843-.857-7.1-1.314h-.173c-.389-.038-.718-.077-.991-.115q-.58-.057-.989-.057a87.264,87.264,0,0,0-11.7-.8q-.467,0-1.455.058-4.249.457,0-.63a24.633,24.633,0,0,1,2.792-.685l1.864-.343q2.561-.4,6.052-.743l4.656-.114q9.313.057,14.9,2.914l5-4.858q3.144-3.315,5.588-6.458A80.976,80.976,0,0,0,95.736,38a21.77,21.77,0,0,0,1.514-3.315L96.2,35.6l-.93.63a3.314,3.314,0,0,1-.816.513l-.116.058a20.862,20.862,0,0,1-6.752,2.857l-1.337.114h-.291l.232-.172,1.164-.457q.525-.229,2.387-1.086A28.593,28.593,0,0,0,93.7,35.887l.059-.057.116-.057.059-.114,1.512-1.029.059-.057a23.009,23.009,0,0,0,2.735-2.115,55.809,55.809,0,0,0,3.551-14.115l.116-7.2-.35.515a48.1,48.1,0,0,1-3.083,3.772A73.944,73.944,0,0,1,83.4,27.373l-1.221.8-.118.4v.114l-.348,1.143-.059.057v.058a22.714,22.714,0,0,1-1.687,4.4q-.525.8-.7.8a3.232,3.232,0,0,1,.116-1.029q.464-2.058,1.1-4.4l.234-.628Zm2.328-3.258a105.7,105.7,0,0,0,8.9-6q4.191-3.372,5.877-5.028a32.851,32.851,0,0,0,3.26-3.544l1.1-1.257.059.171.407,2.857a14.161,14.161,0,0,1,.175,2.344,27.883,27.883,0,0,1-.059,2.971A57.632,57.632,0,0,1,101.5,26.8l-.989,3.486V30.23l-.7,2.057q-1.221,3.313-2.619,6.286A76.257,76.257,0,0,1,88.055,53.2q-3.083,3.943-5.645,6.629l-.873.857a.651.651,0,0,0-.116.172q-.116.114-.116.171a.179.179,0,0,0-.118.058.161.161,0,0,0-.057.114.168.168,0,0,0-.116.057L80.2,62c-.425.419-.757.762-.989,1.028L77.754,64.4H77.7l-.232.286-1.921-.742a39.958,39.958,0,0,0-14.549-2.172l-2.794.057c.466.038.953.095,1.455.172a1.608,1.608,0,0,1,.35.057l1.223.172h.057l.116.057q2.97.457,7.218,1.543a38.131,38.131,0,0,1,5,1.714l1.805.857-.523.515-2.91,2.286-.118.114-.7.571a88.11,88.11,0,0,1-8.614,5.544,55.09,55.09,0,0,1-9.077,4.057,24.236,24.236,0,0,1-8.614,1.143,60.2,60.2,0,0,1-7.275-.971l-5.879-1.143a62.048,62.048,0,0,0-8.9-1.029h-.466l-.291.343c.93.077,1.882.191,2.851.343h.234l2.851.63h.232l.118.057H28.4q2.329.457,6.111,1.6l4.481,1.315,1.514.458L25.783,84.978q-2.094.457-2.269.458l-.757.286a29.508,29.508,0,0,0-2.91.971l-.059.057q-1.511.686-2.91,1.487L14.9,89.55v.057a33.477,33.477,0,0,0-1.4,6.4,29.222,29.222,0,0,1-.35,3.086q-.464,2.285-1.28,2.343-1.047.057-1.455-2.343a11.49,11.49,0,0,1-.116-3.372l.755-4.744h.059A38.691,38.691,0,0,1,13.1,85.264a8.993,8.993,0,0,0,.175-1.028l.466-5.03.116-.343v-.229a24.9,24.9,0,0,0-.407-5.257v-.058l-.116-.742.639.4,3.144,2.972a16.576,16.576,0,0,1-.525-2.8V71.377q.351-1.887.409-2a17.251,17.251,0,0,1,2.094-4.115l1.63-2.114q.583-.686,2.037-2.057A55.262,55.262,0,0,1,27.763,56.8l1.628-1.258a121.176,121.176,0,0,1,12.049-8q3.434-2.058,7.857-4.286L57.21,39.2l.234,1.828a21.127,21.127,0,0,1-.291,3.773v.171l-.059.172V45.2l-.407,1.543V46.8l-.059.114a16.064,16.064,0,0,1-.757,2.4L58.258,45.2l.059-.172q.406-.857,2.037-4.629l.464-.971v-.057l1.048-2.515,6.927-3.372q7.332-3.543,12.685-6.744ZM14.669,82.692l2.269-3.715.466-.628-.116-.286h-.059l-.116-.172v-.057l-.059-.057-2.619-3.2a14.837,14.837,0,0,1,.466,3.486l-.175,4.172ZM25.085,79.32H24.97a32.617,32.617,0,0,0-3.726-.457l-2.328,2.857-1.221,1.943q-1.1,1.885-1.63,2.971a30.089,30.089,0,0,1,9.252-3.429l.7-.286,9.834-1.143a.661.661,0,0,1-.291-.057l-7.45-1.771h-.175Z" transform="translate(-10.238 -9.999)" fill="#673333" fill-rule="evenodd"/>
</svg>
