<svg xmlns="http://www.w3.org/2000/svg" width="620.448" height="110.58" viewBox="0 0 620.448 110.58">
  <g data-name="Group 5" transform="translate(-25 -41.42)">
    <g data-name="Group 18" transform="translate(-1333.751 -141.475)">
      <path data-name="Path 20" d="M1227.7,207.042s43.634-34.034,112.841-37.829c32.9-.206,71.905,9.145,112.914,37.829.035-.1-46-51.482-111.625-52.371-56.587,3.707-94.964,31.479-114.131,52.371Z" transform="translate(134.873 82.904)" fill="#175c4c"/>
      <path data-name="Path 21" d="M1259.355,175.991s-.141-14.2,10.527-23.313,24.879-13.417,24.879-13.417.164,17.256-13.26,27.311S1259.355,175.991,1259.355,175.991Z" transform="translate(215.891 48.599)" fill="#175c4c"/>
      <path data-name="Path 22" d="M0,34.79S-.128,21.344,9.55,12.708,32.12,0,32.12,0s.148,16.344-12.029,25.868S0,34.79,0,34.79Z" transform="translate(1436.196 196.822) rotate(-11)" fill="#175c4c"/>
      <path data-name="Path 23" d="M0,31.673s-.106-12.241,7.893-20.1S26.547,0,26.547,0s.122,14.88-9.942,23.551S0,31.673,0,31.673Z" transform="translate(1402.111 212.384) rotate(-20)" fill="#175c4c"/>
      <path data-name="Path 24" d="M0,33.871s-.127-13.09,9.5-21.5S31.958,0,31.958,0s.147,15.912-11.968,25.185S0,33.871,0,33.871Z" transform="translate(1519.001 196.886) rotate(17)" fill="#175c4c"/>
      <path data-name="Path 25" d="M0,30.538s-.113-11.8,8.412-19.383S28.293,0,28.293,0s.131,14.347-10.6,22.707S0,30.538,0,30.538Z" transform="translate(1556.104 218.621) rotate(45)" fill="#175c4c"/>
    </g>
    <path data-name="Path 28" d="M45.406,2.628A31.368,31.368,0,0,1,29.93-1.022a44.6,44.6,0,0,1-9.636-6.716,20.981,20.981,0,0,0-2.482-2.19,3.336,3.336,0,0,0-1.9-.73q-2.336,0-4.38,4.015a45.252,45.252,0,0,0-3.212,8.1H4.964l11.68-46.136H20a47.73,47.73,0,0,0-.73,7.738A40.457,40.457,0,0,0,22.995-19.71,33.7,33.7,0,0,0,33-6.862,21.858,21.858,0,0,0,46.574-2.044q12.264,0,18.688-5.11t6.424-15.038a15.034,15.034,0,0,0-2.92-9.563,33.153,33.153,0,0,0-8.906-7.373L42.924-49.494Q34.018-54.75,29.93-60.59T25.842-75.92q0-15.33,8.833-23t23.141-7.665a21.927,21.927,0,0,1,10.439,2.774,41.835,41.835,0,0,1,8.395,5.694,15.7,15.7,0,0,0,2.336,1.825,3.7,3.7,0,0,0,1.9.511q2.482,0,4.526-3.212a23.521,23.521,0,0,0,2.92-6.424h3.358L83.22-67.452H79.862a37.45,37.45,0,0,0-2.555-15.184A37.14,37.14,0,0,0,68.766-96.36q-5.548-5.548-12.264-5.548a26.465,26.465,0,0,0-12.629,2.774,18.407,18.407,0,0,0-7.665,7.227,19.056,19.056,0,0,0-2.482,9.417q0,6.862,4.015,10.95a50.433,50.433,0,0,0,10.877,8.03l13.724,8.03a85.039,85.039,0,0,1,10.585,7.373,22.646,22.646,0,0,1,5.986,7.884A26.989,26.989,0,0,1,81.03-28.908q0,14.6-9.344,23.068T45.406,2.628Zm44.822-7.3h11.1a4.71,4.71,0,0,0,4.964-3.942l23.506-86.724a7.987,7.987,0,0,0,.292-1.752q0-2.19-3.066-2.19h-11.1l1.168-4.672H167.9a31.341,31.341,0,0,1,12.7,2.555,22.239,22.239,0,0,1,9.417,7.592A20.508,20.508,0,0,1,193.6-81.614a20.025,20.025,0,0,1-5.11,13.87A34.121,34.121,0,0,1,176-58.984,59.726,59.726,0,0,1,161.33-54.9l-.146.292a26.62,26.62,0,0,1,11.534,3.212,23.2,23.2,0,0,1,8.614,7.884,20.5,20.5,0,0,1,3.212,11.388,25.273,25.273,0,0,1-6.278,16.863A40.88,40.88,0,0,1,162.425-3.942,49.007,49.007,0,0,1,143.664,0H89.06Zm62.2-52.852q10.074,0,16.133-3.869A21.823,21.823,0,0,0,177.1-70.81a26.975,26.975,0,0,0,2.482-11.1q0-17.374-16.206-17.374h-15.33a4.71,4.71,0,0,0-4.964,3.942L132.86-57.524ZM146.146-4.672a19.415,19.415,0,0,0,12.118-4.015,25.971,25.971,0,0,0,8.03-10.22,30.345,30.345,0,0,0,2.774-12.483q0-9.928-4.38-15.695t-12.994-5.767H131.546L119.574-8.614a8.05,8.05,0,0,0-.292,1.606q0,2.336,3.066,2.336Zm44.822,0h11.1a4.71,4.71,0,0,0,4.964-3.942l23.506-86.724a8.051,8.051,0,0,0,.292-1.606q0-2.336-3.066-2.336h-11.1l1.168-4.672h43.216L259.88-99.28h-11.1q-3.8,0-4.964,3.942L233.162-56.064h45.114l10.658-39.274a8.05,8.05,0,0,0,.292-1.606q0-2.336-3.066-2.336h-11.1l1.168-4.672h43.216L318.28-99.28h-11.1q-3.8,0-4.964,3.942L278.714-8.614a8.05,8.05,0,0,0-.292,1.606q0,2.336,3.066,2.336h11.1L291.416,0H248.2l1.168-4.672h11.1a4.71,4.71,0,0,0,4.964-3.942l11.68-42.778H231.994L220.314-8.614a8.05,8.05,0,0,0-.292,1.606q0,2.336,3.066,2.336h11.1L233.016,0H189.8Z" transform="translate(326 148)" fill="#175c4c"/>
  </g>
</svg>
