<svg xmlns="http://www.w3.org/2000/svg" width="553.14" height="204.88" viewBox="0 0 553.14 204.88">
  <g id="LOGO" transform="translate(-1147.768 -187.86)">
    <g id="Group_18" data-name="Group 18" transform="translate(1332.252 187.86)">
      <path id="Path_20" data-name="Path 20" d="M1226.921,196.359s34.733-27.091,89.823-30.113c26.187-.164,57.238,7.28,89.882,30.113.028-.079-36.619-40.98-88.855-41.688-45.044,2.951-75.593,25.058-90.85,41.688Z" transform="translate(-1223.878 -115.097)" fill="#175c4c"/>
      <path id="Path_21" data-name="Path 21" d="M1259.355,168.5s-.112-11.3,8.38-18.558,19.8-10.68,19.8-10.68.13,13.736-10.555,21.74S1259.355,168.5,1259.355,168.5Z" transform="translate(-1166.623 -139.261)" fill="#175c4c"/>
      <path id="Path_22" data-name="Path 22" d="M0,27.693s-.1-10.7,7.6-17.577S25.568,0,25.568,0s.118,13.01-9.575,20.592S0,27.693,0,27.693Z" transform="translate(61.647 7.134) rotate(-11)" fill="#175c4c"/>
      <path id="Path_23" data-name="Path 23" d="M0,25.212s-.084-9.744,6.283-16A45.091,45.091,0,0,1,21.132,0s.1,11.844-7.914,18.747S0,25.212,0,25.212Z" transform="translate(34.515 19.521) rotate(-20)" fill="#175c4c"/>
      <path id="Path_24" data-name="Path 24" d="M0,26.961S-.1,16.541,7.564,9.849,25.439,0,25.439,0s.117,12.666-9.527,20.048S0,26.961,0,26.961Z" transform="translate(127.561 7.184) rotate(17)" fill="#175c4c"/>
      <path id="Path_25" data-name="Path 25" d="M0,24.309S-.09,14.914,6.7,8.88,22.522,0,22.522,0s.1,11.42-8.435,18.075S0,24.309,0,24.309Z" transform="translate(157.096 24.486) rotate(45)" fill="#175c4c"/>
    </g>
    <path id="Path_27" data-name="Path 27" d="M18.66,1.08A12.891,12.891,0,0,1,12.3-.42,18.329,18.329,0,0,1,8.34-3.18a8.622,8.622,0,0,0-1.02-.9,1.371,1.371,0,0,0-.78-.3q-.96,0-1.8,1.65A18.6,18.6,0,0,0,3.42.6H2.04l4.8-18.96H8.22a19.615,19.615,0,0,0-.3,3.18A16.626,16.626,0,0,0,9.45-8.1a13.848,13.848,0,0,0,4.11,5.28A8.983,8.983,0,0,0,19.14-.84q5.04,0,7.68-2.1a7.424,7.424,0,0,0,2.64-6.18,6.178,6.178,0,0,0-1.2-3.93,13.625,13.625,0,0,0-3.66-3.03l-6.96-4.26A16.823,16.823,0,0,1,12.3-24.9a10.766,10.766,0,0,1-1.68-6.3q0-6.3,3.63-9.45a13.992,13.992,0,0,1,9.51-3.15,9.011,9.011,0,0,1,4.29,1.14,17.192,17.192,0,0,1,3.45,2.34,6.452,6.452,0,0,0,.96.75,1.521,1.521,0,0,0,.78.21,2.315,2.315,0,0,0,1.86-1.32,9.666,9.666,0,0,0,1.2-2.64h1.38L34.2-27.72H32.82a15.39,15.39,0,0,0-1.05-6.24,15.263,15.263,0,0,0-3.51-5.64,7,7,0,0,0-5.04-2.28,10.876,10.876,0,0,0-5.19,1.14,7.565,7.565,0,0,0-3.15,2.97,7.831,7.831,0,0,0-1.02,3.87,6.144,6.144,0,0,0,1.65,4.5,20.726,20.726,0,0,0,4.47,3.3l5.64,3.3a34.948,34.948,0,0,1,4.35,3.03,9.307,9.307,0,0,1,2.46,3.24,11.091,11.091,0,0,1,.87,4.65A12.154,12.154,0,0,1,29.46-2.4Q25.62,1.08,18.66,1.08ZM53.28-35.16a3.016,3.016,0,0,1-2.22-.9,3.016,3.016,0,0,1-.9-2.22,2.99,2.99,0,0,1,.9-2.25,3.071,3.071,0,0,1,2.22-.87,3.045,3.045,0,0,1,2.25.87,3.045,3.045,0,0,1,.87,2.25,3.071,3.071,0,0,1-.87,2.22A2.99,2.99,0,0,1,53.28-35.16ZM46.86.72A3.336,3.336,0,0,1,44.13-.72a7.015,7.015,0,0,1-1.11-4.32,16.68,16.68,0,0,1,.36-3.15,15.582,15.582,0,0,1,.84-2.97l3.84-8.94a14.754,14.754,0,0,0,.63-1.74,6.4,6.4,0,0,0,.33-1.8,2.611,2.611,0,0,0-.33-1.38,1.085,1.085,0,0,0-.99-.54q-2.04,0-3.93,3.12a38.534,38.534,0,0,0-3.21,6.72l-1.2-.36a30.138,30.138,0,0,1,3.96-8.04q2.34-3.24,5.04-3.24a3.251,3.251,0,0,1,2.67,1.5,7.061,7.061,0,0,1,1.11,4.26,17.612,17.612,0,0,1-.36,3.21,12.684,12.684,0,0,1-.84,2.91L47.1-6.54a14.753,14.753,0,0,0-.63,1.74A6.4,6.4,0,0,0,46.14-3a2.44,2.44,0,0,0,.36,1.38,1.156,1.156,0,0,0,1.02.54q2.04,0,3.9-3.12a39.933,39.933,0,0,0,3.18-6.72l1.2.36a30.041,30.041,0,0,1-3.93,8.07Q49.56.72,46.86.72Zm48.36,0A3.336,3.336,0,0,1,92.49-.72a7.015,7.015,0,0,1-1.11-4.32,16.68,16.68,0,0,1,.36-3.15,15.581,15.581,0,0,1,.84-2.97l3.84-8.94a14.753,14.753,0,0,0,.63-1.74,6.4,6.4,0,0,0,.33-1.8,2.611,2.611,0,0,0-.33-1.38,1.085,1.085,0,0,0-.99-.54q-3.6,0-7.62,6.78-2.4,4.08-4.29,8.1a47.5,47.5,0,0,0-2.67,6.72L80.28,0H76.32L81.3-18.54q.12-.42.57-1.95a9.8,9.8,0,0,0,.45-2.73q0-2.34-1.92-2.34-1.56,0-4.26,4.02a75.952,75.952,0,0,0-5.25,9.3,60.9,60.9,0,0,0-3.45,8.28L66.24,0H62.28l5.04-18.54a24.607,24.607,0,0,0,.9-5.1,2.6,2.6,0,0,0-.24-1.26.945.945,0,0,0-.9-.42q-3.06,0-6.48,9.6l-1.2-.36q3.96-11.28,8.76-11.28,3.54,0,3.54,6.18a19.89,19.89,0,0,1-.54,3.54,18.133,18.133,0,0,1-1.08,3.66l.24.18.72-1.32a72.572,72.572,0,0,1,5.25-8.7q2.55-3.54,4.89-3.54,4.62,0,4.62,5.7A17.267,17.267,0,0,1,85.23-18q-.57,2.4-1.05,4.02l.18.18.84-1.5a54.627,54.627,0,0,1,5.37-8.58q2.73-3.48,6.03-3.48a3.322,3.322,0,0,1,2.85,1.47,7.341,7.341,0,0,1,1.05,4.29,17.612,17.612,0,0,1-.36,3.21,12.684,12.684,0,0,1-.84,2.91L95.46-6.54a14.753,14.753,0,0,0-.63,1.74A6.4,6.4,0,0,0,94.5-3a2.44,2.44,0,0,0,.36,1.38,1.156,1.156,0,0,0,1.02.54q2.04,0,3.9-3.12a39.934,39.934,0,0,0,3.18-6.72l1.2.36a30.041,30.041,0,0,1-3.93,8.07Q97.92.72,95.22.72Zm6.3,11.88h4.44a1.656,1.656,0,0,0,1.08-.3,1.89,1.89,0,0,0,.54-1.02l8.22-30.54a19.817,19.817,0,0,0,.72-4.44,2.178,2.178,0,0,0-.27-1.26,1.09,1.09,0,0,0-.93-.36q-1.62,0-3.39,2.91a32.8,32.8,0,0,0-3.03,6.69l-1.2-.36q3.96-11.28,8.88-11.28a2.7,2.7,0,0,1,2.64,1.71,9.532,9.532,0,0,1,.78,3.99q0,.84-.03,1.38t-.03.66l.18.12a20.276,20.276,0,0,1,3.69-5.28A7.109,7.109,0,0,1,129-27.36a5.941,5.941,0,0,1,4.95,2.25,9.386,9.386,0,0,1,1.77,5.97,23.084,23.084,0,0,1-1.08,7.05,23.783,23.783,0,0,1-2.46,5.55,18.608,18.608,0,0,1-4.89,5.28A9.714,9.714,0,0,1,121.62.72a5.023,5.023,0,0,1-3.36-1.29,7.417,7.417,0,0,1-2.16-3.99l-.24-.12-4.2,15.96-.12.6a.619.619,0,0,0,.24.57,1.53,1.53,0,0,0,.78.15h7.32l-.48,1.68H101.04ZM121.62-.72a4.681,4.681,0,0,0,3.54-2.04,20.954,20.954,0,0,0,2.88-4.68,42.218,42.218,0,0,0,2.43-7.14,29.3,29.3,0,0,0,.93-6.96,6.98,6.98,0,0,0-.63-3.09,2.189,2.189,0,0,0-2.13-1.29,5.812,5.812,0,0,0-4.26,2.25,23.722,23.722,0,0,0-3.78,6.03,41.978,41.978,0,0,0-2.1,6,21.47,21.47,0,0,0-.9,5.4,6.692,6.692,0,0,0,1.08,4.08A3.479,3.479,0,0,0,121.62-.72ZM147.9.72A9.688,9.688,0,0,1,143.25-.3a7.164,7.164,0,0,1-2.85-2.64,6.605,6.605,0,0,1-.96-3.42,4.829,4.829,0,0,1,.84-2.67,2.751,2.751,0,0,1,2.46-1.29,2.184,2.184,0,0,1,1.56.63,2.252,2.252,0,0,1,.66,1.71,1.805,1.805,0,0,1-1.26,1.92,2.861,2.861,0,0,0-1.14.66,1.9,1.9,0,0,0-.42,1.38,2.654,2.654,0,0,0,2.01,2.52,11.271,11.271,0,0,0,4.11.78,7.267,7.267,0,0,0,4.86-1.44,4.548,4.548,0,0,0,1.68-3.6,5.347,5.347,0,0,0-.48-2.25,4.556,4.556,0,0,0-1.44-1.77l-4.98-3.78a6.037,6.037,0,0,1-2.82-5.46,7.588,7.588,0,0,1,1.35-4.53,8.487,8.487,0,0,1,3.48-2.85,10.621,10.621,0,0,1,4.41-.96,7.1,7.1,0,0,1,4.11,1.17,8.029,8.029,0,0,1,2.58,2.76,6,6,0,0,1,.87,2.79,3.838,3.838,0,0,1-.78,2.4,2.761,2.761,0,0,1-2.34,1.02,2.508,2.508,0,0,1-1.65-.63,1.989,1.989,0,0,1-.75-1.59,2.234,2.234,0,0,1,.78-1.8,4.642,4.642,0,0,1,.84-.6q.72-.42.72-.96a2.566,2.566,0,0,0-1.53-2.25,6.4,6.4,0,0,0-3.21-.87,6.708,6.708,0,0,0-4.2,1.38,4.565,4.565,0,0,0-1.8,3.84,4.087,4.087,0,0,0,.39,2.1,4.91,4.91,0,0,0,1.35,1.26l5.58,4.2a8.988,8.988,0,0,1,2.1,2.07,4.958,4.958,0,0,1,.78,2.91,8.132,8.132,0,0,1-1.23,4.26,9.283,9.283,0,0,1-3.57,3.33A11.13,11.13,0,0,1,147.9.72Zm26.46,0a7.068,7.068,0,0,1-3.87-1.17,8.523,8.523,0,0,1-3-3.57,13.186,13.186,0,0,1-1.17-5.82,18.558,18.558,0,0,1,2.01-8.28,18.61,18.61,0,0,1,5.37-6.66,11.527,11.527,0,0,1,7.14-2.58,6.923,6.923,0,0,1,3.84,1.17,8.416,8.416,0,0,1,2.94,3.57,13.483,13.483,0,0,1,1.14,5.82,18.787,18.787,0,0,1-1.98,8.28,18.465,18.465,0,0,1-5.31,6.66A11.405,11.405,0,0,1,174.36.72Zm.24-1.44a5.055,5.055,0,0,0,4.02-1.92,20.413,20.413,0,0,0,3-5.16,37.005,37.005,0,0,0,2.04-6.36,28.267,28.267,0,0,0,.78-6.24,7.412,7.412,0,0,0-.96-3.99,3.176,3.176,0,0,0-2.88-1.53,5.2,5.2,0,0,0-4.08,1.95,20.094,20.094,0,0,0-3.06,5.13,37.006,37.006,0,0,0-2.04,6.36,28.267,28.267,0,0,0-.78,6.24,7.07,7.07,0,0,0,1.02,3.99A3.319,3.319,0,0,0,174.6-.72ZM214.86.72a3.336,3.336,0,0,1-2.73-1.44,7.015,7.015,0,0,1-1.11-4.32,16.679,16.679,0,0,1,.36-3.15,15.58,15.58,0,0,1,.84-2.97l3.84-8.94a14.754,14.754,0,0,0,.63-1.74,6.4,6.4,0,0,0,.33-1.8,2.611,2.611,0,0,0-.33-1.38,1.085,1.085,0,0,0-.99-.54q-3.6,0-7.62,6.78-2.4,4.08-4.29,8.1a47.5,47.5,0,0,0-2.67,6.72L199.92,0h-3.96L201-18.6a24.607,24.607,0,0,0,.9-5.1,2.422,2.422,0,0,0-.24-1.23.971.971,0,0,0-.9-.39q-1.68,0-3.39,2.79a34.527,34.527,0,0,0-3.09,6.81l-1.2-.36q3.96-11.28,8.82-11.28,3.48,0,3.48,6.12a18.441,18.441,0,0,1-.57,3.69,28.528,28.528,0,0,1-.99,3.57l.18.18.84-1.5a54.627,54.627,0,0,1,5.37-8.58q2.73-3.48,6.03-3.48a3.322,3.322,0,0,1,2.85,1.47,7.341,7.341,0,0,1,1.05,4.29,17.611,17.611,0,0,1-.36,3.21,12.685,12.685,0,0,1-.84,2.91L215.1-6.54a14.755,14.755,0,0,0-.63,1.74,6.4,6.4,0,0,0-.33,1.8,2.44,2.44,0,0,0,.36,1.38,1.156,1.156,0,0,0,1.02.54q2.04,0,3.9-3.12a39.933,39.933,0,0,0,3.18-6.72l1.2.36a30.041,30.041,0,0,1-3.93,8.07Q217.56.72,214.86.72Zm21.66,0a6.394,6.394,0,0,1-3.57-1.08,7.6,7.6,0,0,1-2.64-3.09,10.542,10.542,0,0,1-.99-4.71,10.353,10.353,0,0,1,.36-2.94l7.92-28.86a3.308,3.308,0,0,0,.12-.66q0-.66-1.02-.66h-5.34l.42-1.44H242.4l-5.88,21.54.3.24a16.086,16.086,0,0,1,3.87-4.62,7.591,7.591,0,0,1,4.83-1.8,5.366,5.366,0,0,1,4.8,2.64A11.152,11.152,0,0,1,252-18.6a20.2,20.2,0,0,1-2.07,8.31,25.936,25.936,0,0,1-4.59,7.17,13.9,13.9,0,0,1-4.02,2.88A11.427,11.427,0,0,1,236.52.72Zm.84-1.44a4.659,4.659,0,0,0,3.6-1.8,24.313,24.313,0,0,0,3.06-4.68,29.115,29.115,0,0,0,3.66-13.74,8.423,8.423,0,0,0-.69-3.39q-.69-1.59-1.95-1.59a6.415,6.415,0,0,0-4.23,2.01,18.538,18.538,0,0,0-3.93,5.55,36.686,36.686,0,0,0-2.43,6.21,21.024,21.024,0,0,0-.93,5.79,10.44,10.44,0,0,0,.69,3.93Q234.9-.72,237.36-.72ZM263.28.72a5.941,5.941,0,0,1-4.95-2.25,9.386,9.386,0,0,1-1.77-5.97,23.084,23.084,0,0,1,1.08-7.05,23.783,23.783,0,0,1,2.46-5.55,18.608,18.608,0,0,1,4.89-5.28,9.714,9.714,0,0,1,5.67-1.98,5.023,5.023,0,0,1,3.36,1.29,7.417,7.417,0,0,1,2.16,3.99l.24.12,1.32-4.68h3.96l-5.1,18.9a22.938,22.938,0,0,0-.84,4.8A2.422,2.422,0,0,0,276-1.71a.906.906,0,0,0,.84.39q1.62,0,3.36-2.67a30.949,30.949,0,0,0,3.18-6.93l1.2.36a33.008,33.008,0,0,1-3.81,7.95Q278.52.72,275.76.72q-3.48,0-3.48-6.12,0-.78.03-1.17t.03-.45l-.18-.12a20.276,20.276,0,0,1-3.69,5.28A7.109,7.109,0,0,1,263.28.72Zm.36-1.44a5.812,5.812,0,0,0,4.26-2.25A23.722,23.722,0,0,0,271.68-9a41.976,41.976,0,0,0,2.1-6,21.47,21.47,0,0,0,.9-5.4,6.692,6.692,0,0,0-1.08-4.08,3.479,3.479,0,0,0-2.94-1.44,4.681,4.681,0,0,0-3.54,2.04,20.955,20.955,0,0,0-2.88,4.68,42.217,42.217,0,0,0-2.43,7.14,29.3,29.3,0,0,0-.93,6.96,6.981,6.981,0,0,0,.63,3.09A2.189,2.189,0,0,0,263.64-.72Zm31.2,15.6a8.194,8.194,0,0,1-5.22-1.56A5.194,5.194,0,0,1,287.64,9a3.506,3.506,0,0,1,.99-2.64,3.147,3.147,0,0,1,2.25-.96,2.184,2.184,0,0,1,1.77.75,2.508,2.508,0,0,1,.63,1.65,2.9,2.9,0,0,1-1.14,2.4,2.208,2.208,0,0,0-.42.54,1.859,1.859,0,0,0-.12.78q0,1.92,2.58,1.92a8.563,8.563,0,0,0,3.6-.69,8.728,8.728,0,0,0,3-2.55,15.033,15.033,0,0,0,2.37-4.17A50.793,50.793,0,0,0,304.74.96l2.58-9.66-.36-.12a24.369,24.369,0,0,1-4.8,6.72Q299.28.72,296.64.72a4.214,4.214,0,0,1-3.3-1.5,6.244,6.244,0,0,1-1.32-4.26,17.612,17.612,0,0,1,.36-3.21,12.686,12.686,0,0,1,.84-2.91l3.84-8.94a14.752,14.752,0,0,0,.63-1.74,6.4,6.4,0,0,0,.33-1.8,2.44,2.44,0,0,0-.36-1.38,1.155,1.155,0,0,0-1.02-.54q-2.04,0-3.9,3.12a39.932,39.932,0,0,0-3.18,6.72l-1.2-.36a30.04,30.04,0,0,1,3.93-8.07q2.31-3.21,5.01-3.21a3.336,3.336,0,0,1,2.73,1.44,7.015,7.015,0,0,1,1.11,4.32,16.678,16.678,0,0,1-.36,3.15,15.58,15.58,0,0,1-.84,2.97L296.1-6.54a14.757,14.757,0,0,0-.63,1.74,6.4,6.4,0,0,0-.33,1.8q0,2.28,2.1,2.28,2.22,0,4.86-3.03a36.6,36.6,0,0,0,4.89-7.44,45.381,45.381,0,0,0,3.33-8.25l1.98-7.2h3.96L309.18,0a34.641,34.641,0,0,1-2.25,5.73,20.62,20.62,0,0,1-3.75,5.43,11.767,11.767,0,0,1-4.14,2.85A11.526,11.526,0,0,1,294.84,14.88ZM333.6-1.92h4.56a1.936,1.936,0,0,0,2.04-1.62l9.66-35.64a3.308,3.308,0,0,0,.12-.66q0-.96-1.26-.96h-4.56l.48-1.92H362.4l-.48,1.92h-4.56a1.99,1.99,0,0,0-2.04,1.62l-4.38,16.14h18.54l4.38-16.14a3.309,3.309,0,0,0,.12-.66q0-.96-1.26-.96h-4.56l.48-1.92H386.4l-.48,1.92h-4.56a1.99,1.99,0,0,0-2.04,1.62L369.66-3.54a3.309,3.309,0,0,0-.12.66q0,.96,1.26.96h4.56L374.88,0H357.12l.48-1.92h4.56a1.936,1.936,0,0,0,2.04-1.62L369-21.12H350.46l-4.8,17.58a3.309,3.309,0,0,0-.12.66q0,.96,1.26.96h4.56L350.88,0H333.12ZM392.88.72a6.931,6.931,0,0,1-5.82-2.97,11.733,11.733,0,0,1-2.22-7.23,20.057,20.057,0,0,1,1.32-7.11,18.321,18.321,0,0,1,3.96-6.27q4.32-4.5,9-4.5a6.288,6.288,0,0,1,3.93,1.17,4.568,4.568,0,0,1,1.53,3.87q0,4.68-6.06,7.5a17.124,17.124,0,0,1-4.08,1.35,39.4,39.4,0,0,1-4.44.57q-.3,1.26-.57,3.27a28.271,28.271,0,0,0-.27,3.75,5.579,5.579,0,0,0,1.17,3.9,3.743,3.743,0,0,0,2.85,1.26,7.338,7.338,0,0,0,6.06-3,21.551,21.551,0,0,0,3.3-5.58l1.26.42a16.942,16.942,0,0,1-4.38,6.84A9.341,9.341,0,0,1,392.88.72ZM390.36-14.4a20.645,20.645,0,0,0,7.02-1.5,7.121,7.121,0,0,0,3.12-2.64,7.29,7.29,0,0,0,1.2-4.14,3.528,3.528,0,0,0-.72-2.49,2.392,2.392,0,0,0-1.8-.75,6.187,6.187,0,0,0-4.56,2.25,14.319,14.319,0,0,0-3.06,4.89q-.3.96-.66,2.28T390.36-14.4Zm26.04-4.2a24.607,24.607,0,0,0,.9-5.1,2.422,2.422,0,0,0-.24-1.23.971.971,0,0,0-.9-.39q-1.68,0-3.42,2.85a33.662,33.662,0,0,0-3.06,6.75l-1.2-.36q3.96-11.28,8.82-11.28,3.48,0,3.48,6.12a11.024,11.024,0,0,1-.18,1.83,14.627,14.627,0,0,1-.36,1.65l.42.12a42.281,42.281,0,0,1,4.08-6.99q2.04-2.73,4.32-2.73a3.674,3.674,0,0,1,3,1.23,4.416,4.416,0,0,1,1.02,2.91,4.252,4.252,0,0,1-1.02,2.79,3.333,3.333,0,0,1-2.7,1.23,2.179,2.179,0,0,1-1.68-.72,2.563,2.563,0,0,1-.66-1.8,2.867,2.867,0,0,1,.72-1.92q.6-.6.6-.9a.828.828,0,0,0-.15-.54.816.816,0,0,0-.63-.18q-1.38,0-3.57,3.75a71.193,71.193,0,0,0-4.29,8.88q-2.1,5.13-3.24,8.91L415.32,0h-3.96Zm31.8-16.56a3.016,3.016,0,0,1-2.22-.9,3.016,3.016,0,0,1-.9-2.22,2.99,2.99,0,0,1,.9-2.25,3.071,3.071,0,0,1,2.22-.87,3.045,3.045,0,0,1,2.25.87,3.045,3.045,0,0,1,.87,2.25,3.071,3.071,0,0,1-.87,2.22A2.99,2.99,0,0,1,448.2-35.16ZM441.78.72a3.337,3.337,0,0,1-2.73-1.44,7.015,7.015,0,0,1-1.11-4.32,16.68,16.68,0,0,1,.36-3.15,15.585,15.585,0,0,1,.84-2.97l3.84-8.94a14.752,14.752,0,0,0,.63-1.74,6.4,6.4,0,0,0,.33-1.8,2.611,2.611,0,0,0-.33-1.38,1.085,1.085,0,0,0-.99-.54q-2.04,0-3.93,3.12a38.534,38.534,0,0,0-3.21,6.72l-1.2-.36a30.138,30.138,0,0,1,3.96-8.04q2.34-3.24,5.04-3.24a3.251,3.251,0,0,1,2.67,1.5,7.06,7.06,0,0,1,1.11,4.26,17.61,17.61,0,0,1-.36,3.21,12.683,12.683,0,0,1-.84,2.91l-3.84,8.94a14.757,14.757,0,0,0-.63,1.74,6.4,6.4,0,0,0-.33,1.8,2.44,2.44,0,0,0,.36,1.38,1.156,1.156,0,0,0,1.02.54q2.04,0,3.9-3.12a39.934,39.934,0,0,0,3.18-6.72l1.2.36a30.04,30.04,0,0,1-3.93,8.07Q444.48.72,441.78.72Zm17.94,0a4.139,4.139,0,0,1-3.21-1.35,5.273,5.273,0,0,1-1.23-3.69,20.358,20.358,0,0,1,.66-4.92l4.32-15.72h-4.14l.42-1.68h4.2l3.9-14.4h3.96l-3.9,14.4h6.78l-.42,1.68h-6.84L459.24-6.48a11.847,11.847,0,0,0-.33,1.65,12.612,12.612,0,0,0-.15,1.71,2.01,2.01,0,0,0,.42,1.14,1.5,1.5,0,0,0,1.32.6,2.956,2.956,0,0,0,1.56-.48,7.417,7.417,0,0,0,2.37-3.27,46.114,46.114,0,0,0,1.95-5.79l1.2.36a30.2,30.2,0,0,1-3,8.19A5.45,5.45,0,0,1,459.72.72Zm20.88,0a5.941,5.941,0,0,1-4.95-2.25,9.386,9.386,0,0,1-1.77-5.97,23.084,23.084,0,0,1,1.08-7.05,23.783,23.783,0,0,1,2.46-5.55,18.608,18.608,0,0,1,4.89-5.28,9.714,9.714,0,0,1,5.67-1.98,5.023,5.023,0,0,1,3.36,1.29,7.417,7.417,0,0,1,2.16,3.99l.24.12,1.32-4.68h3.96l-5.1,18.9a22.939,22.939,0,0,0-.84,4.8,2.422,2.422,0,0,0,.24,1.23.906.906,0,0,0,.84.39q1.62,0,3.36-2.67a30.949,30.949,0,0,0,3.18-6.93l1.2.36a33.008,33.008,0,0,1-3.81,7.95Q495.84.72,493.08.72q-3.48,0-3.48-6.12,0-.78.03-1.17t.03-.45l-.18-.12a20.276,20.276,0,0,1-3.69,5.28A7.109,7.109,0,0,1,480.6.72Zm.36-1.44a5.812,5.812,0,0,0,4.26-2.25A23.722,23.722,0,0,0,489-9a41.98,41.98,0,0,0,2.1-6,21.47,21.47,0,0,0,.9-5.4,6.692,6.692,0,0,0-1.08-4.08,3.479,3.479,0,0,0-2.94-1.44,4.681,4.681,0,0,0-3.54,2.04,20.954,20.954,0,0,0-2.88,4.68,42.22,42.22,0,0,0-2.43,7.14,29.3,29.3,0,0,0-.93,6.96,6.98,6.98,0,0,0,.63,3.09A2.189,2.189,0,0,0,480.96-.72Zm28.56,15.6a7.842,7.842,0,0,1-5.1-1.56A5.26,5.26,0,0,1,502.5,9a3.506,3.506,0,0,1,.99-2.64,3.147,3.147,0,0,1,2.25-.96,2.184,2.184,0,0,1,1.77.75,2.508,2.508,0,0,1,.63,1.65A2.9,2.9,0,0,1,507,10.2a2.207,2.207,0,0,0-.42.54,1.859,1.859,0,0,0-.12.78q0,1.92,2.58,1.92a8.02,8.02,0,0,0,3.57-.75,8.622,8.622,0,0,0,2.97-2.67,19,19,0,0,0,2.43-4.23A35.975,35.975,0,0,0,519.6.96q.36-1.14,1.11-3.81t1.11-4.17l-.18-.12a20.277,20.277,0,0,1-3.69,5.28A7.109,7.109,0,0,1,512.76.72a5.941,5.941,0,0,1-4.95-2.25,9.386,9.386,0,0,1-1.77-5.97,19.663,19.663,0,0,1,1.35-7.11,33.932,33.932,0,0,1,2.91-5.97,15.9,15.9,0,0,1,4.71-4.98,9.9,9.9,0,0,1,5.49-1.8,4.568,4.568,0,0,1,3.24,1.38,7.062,7.062,0,0,1,1.92,3.9l.24.12,1.32-4.68h3.96L523.8.42a29.52,29.52,0,0,1-2.46,5.97,19,19,0,0,1-3.84,5.13,12.174,12.174,0,0,1-3.99,2.55A11.261,11.261,0,0,1,509.52,14.88Zm3.6-15.6a5.812,5.812,0,0,0,4.26-2.25A23.722,23.722,0,0,0,521.16-9a41.984,41.984,0,0,0,2.1-6,21.471,21.471,0,0,0,.9-5.4,6.692,6.692,0,0,0-1.08-4.08,3.479,3.479,0,0,0-2.94-1.44,4.681,4.681,0,0,0-3.54,2.04,20.954,20.954,0,0,0-2.88,4.68,42.217,42.217,0,0,0-2.43,7.14,29.3,29.3,0,0,0-.93,6.96,6.98,6.98,0,0,0,.63,3.09A2.189,2.189,0,0,0,513.12-.72ZM543.48.72a6.931,6.931,0,0,1-5.82-2.97,11.733,11.733,0,0,1-2.22-7.23,20.057,20.057,0,0,1,1.32-7.11,18.321,18.321,0,0,1,3.96-6.27q4.32-4.5,9-4.5a6.288,6.288,0,0,1,3.93,1.17,4.568,4.568,0,0,1,1.53,3.87q0,4.68-6.06,7.5a17.124,17.124,0,0,1-4.08,1.35,39.4,39.4,0,0,1-4.44.57q-.3,1.26-.57,3.27a28.272,28.272,0,0,0-.27,3.75,5.579,5.579,0,0,0,1.17,3.9,3.743,3.743,0,0,0,2.85,1.26,7.338,7.338,0,0,0,6.06-3,21.552,21.552,0,0,0,3.3-5.58l1.26.42a16.942,16.942,0,0,1-4.38,6.84A9.341,9.341,0,0,1,543.48.72ZM540.96-14.4a20.645,20.645,0,0,0,7.02-1.5,7.121,7.121,0,0,0,3.12-2.64,7.29,7.29,0,0,0,1.2-4.14,3.528,3.528,0,0,0-.72-2.49,2.392,2.392,0,0,0-1.8-.75,6.187,6.187,0,0,0-4.56,2.25,14.319,14.319,0,0,0-3.06,4.89q-.3.96-.66,2.28T540.96-14.4Z" transform="translate(1145.728 377.86)" fill="#175c4c"/>
  </g>
</svg>
